<svg width="40" height="40" viewBox="0 0 40 40" fill="none" xmlns="http://www.w3.org/2000/svg">
<path d="M31.6673 28.334H10.0007C7.23923 28.334 5.00065 26.0954 5.00065 23.334C5.00065 20.8327 6.84565 18.7587 9.24232 18.4007C9.08898 17.8007 9.00065 17.1673 9.00065 16.5007C9.00065 12.3587 12.3587 9.00065 16.5007 9.00065C19.7423 9.00065 22.5007 11.0587 23.5673 13.9507C24.2673 13.5007 25.1007 13.234 26.0007 13.234C28.5757 13.234 30.6673 15.3257 30.6673 17.9007C30.6673 18.4673 30.5757 19.0173 30.4007 19.5257C33.2173 19.9507 35.334 22.3673 35.334 25.334C35.334 28.0954 33.0954 30.334 30.334 30.334" stroke="#8C8C8C" stroke-width="3.33333" stroke-linecap="round" stroke-linejoin="round"/>
</svg>
