<svg width="48" height="48" viewBox="0 0 48 48" fill="none" xmlns="http://www.w3.org/2000/svg">
  <!-- Left waving hand -->
  <g transform="translate(0, 4)">
    <path d="M16 8C16 6.89543 15.1046 6 14 6C12.8954 6 12 6.89543 12 8V20" stroke="white" stroke-width="2" stroke-linecap="round"/>
    <path d="M12 12C12 10.8954 11.1046 10 10 10C8.89543 10 8 10.8954 8 12V22" stroke="white" stroke-width="2" stroke-linecap="round"/>
    <path d="M8 14C8 12.8954 7.10457 12 6 12C4.89543 12 4 12.8954 4 14V24C4 30.6274 9.37258 36 16 36C20.4183 36 24 32.4183 24 28V20" stroke="white" stroke-width="2" stroke-linecap="round"/>
    <path d="M20 10C20 8.89543 19.1046 8 18 8C16.8954 8 16 8.89543 16 10V20" stroke="white" stroke-width="2" stroke-linecap="round"/>
    <path d="M24 14C24 12.8954 23.1046 12 22 12C20.8954 12 20 12.8954 20 14V20" stroke="white" stroke-width="2" stroke-linecap="round"/>
  </g>
  <!-- Right waving hand -->
  <g transform="translate(24, 0)">
    <path d="M8 8C8 6.89543 8.89543 6 10 6C11.1046 6 12 6.89543 12 8V20" stroke="white" stroke-width="2" stroke-linecap="round"/>
    <path d="M12 12C12 10.8954 12.8954 10 14 10C15.1046 10 16 10.8954 16 12V22" stroke="white" stroke-width="2" stroke-linecap="round"/>
    <path d="M16 14C16 12.8954 16.8954 12 18 12C19.1046 12 20 12.8954 20 14V24C20 30.6274 14.6274 36 8 36C3.58172 36 0 32.4183 0 28V20" stroke="white" stroke-width="2" stroke-linecap="round"/>
    <path d="M4 10C4 8.89543 4.89543 8 6 8C7.10457 8 8 8.89543 8 10V20" stroke="white" stroke-width="2" stroke-linecap="round"/>
    <path d="M0 14C0 12.8954 0.895431 12 2 12C3.10457 12 4 12.8954 4 14V20" stroke="white" stroke-width="2" stroke-linecap="round"/>
  </g>
</svg>
